<svg width="108" height="6" viewBox="0 0 108 6" fill="none" xmlns="http://www.w3.org/2000/svg">
<path fill-rule="evenodd" clip-rule="evenodd" d="M107.958 1.90825C107.517 1.20093 103.73 0.903094 92.3502 0.654909C81.7315 0.419133 69.3697 -0.263363 47.7716 0.108914C31.2625 0.394327 10.7063 1.53599 10.7063 2.16886C10.7063 2.628 11.5078 2.64041 19.1612 2.23091C26.2337 1.85863 29.8601 1.77177 34.2879 1.67249C16.5366 2.64041 12.7499 3.27326 3.29323 3.88131C-2.63722 4.266 0.828888 5.37043 2.9927 5.25875C3.01274 5.25875 30.6014 3.8689 33.206 3.94336C33.4464 3.95577 30.8218 4.17913 27.3557 4.43973C17.6786 5.18428 19.5419 6.4252 26.7947 5.85437C51.1977 3.93094 74.1581 3.33528 91.8493 4.1667C97.4392 4.4273 98.0603 4.4273 98.0603 4.10466C98.0603 3.53383 96.5376 3.09953 94.1534 3.01267C90.4268 2.86375 76.0816 2.44183 69.5901 2.31774C69.0892 2.30533 69.3296 2.06959 69.7704 2.04477C72.4151 1.88345 93.4121 2.00749 101.667 2.18122C107.737 2.30531 108.178 2.29294 107.958 1.90825Z" fill="#F7AF5A"/>
</svg>
